<?xml version="1.0" encoding="UTF-8"?>
<svg xmlns="http://www.w3.org/2000/svg" viewBox="0 0 1440 980" width="1440" height="980">
  <style>
    @import url("https://fonts.googleapis.com/css2?family=Plus+Jakarta+Sans:wght@400;500;600;700;800&amp;family=JetBrains+Mono:wght@400;500;600&amp;display=swap");
    text { font-family: "Plus Jakarta Sans", -apple-system, BlinkMacSystemFont, "Segoe UI", Roboto, sans-serif; }
    .mono { font-family: "JetBrains Mono", Menlo, Consolas, monospace; }
  </style>
  <defs>
    <!-- Arrow Markers -->
    <marker id="arr-blue" markerWidth="9" markerHeight="6" refX="8" refY="3" orient="auto">
      <polygon points="0 0, 9 3, 0 6" fill="#2563eb"/>
    </marker>
    <marker id="arr-teal" markerWidth="9" markerHeight="6" refX="8" refY="3" orient="auto">
      <polygon points="0 0, 9 3, 0 6" fill="#0d9488"/>
    </marker>
    <marker id="arr-indigo" markerWidth="9" markerHeight="6" refX="8" refY="3" orient="auto">
      <polygon points="0 0, 9 3, 0 6" fill="#4f46e5"/>
    </marker>
    <marker id="arr-purple" markerWidth="9" markerHeight="6" refX="8" refY="3" orient="auto">
      <polygon points="0 0, 9 3, 0 6" fill="#9333ea"/>
    </marker>
    <marker id="arr-amber" markerWidth="9" markerHeight="6" refX="8" refY="3" orient="auto">
      <polygon points="0 0, 9 3, 0 6" fill="#d97706"/>
    </marker>
    <marker id="arr-red" markerWidth="9" markerHeight="6" refX="8" refY="3" orient="auto">
      <polygon points="0 0, 9 3, 0 6" fill="#dc2626"/>
    </marker>
    <marker id="arr-green" markerWidth="9" markerHeight="6" refX="8" refY="3" orient="auto">
      <polygon points="0 0, 9 3, 0 6" fill="#16a34a"/>
    </marker>
    <marker id="arr-slate" markerWidth="9" markerHeight="6" refX="8" refY="3" orient="auto">
      <polygon points="0 0, 9 3, 0 6" fill="#64748b"/>
    </marker>
    <filter id="card-shadow" x="-3%" y="-4%" width="106%" height="112%" filterUnits="userSpaceOnUse">
      <feDropShadow dx="0" dy="3" stdDeviation="4" flood-color="#0f172a" flood-opacity="0.04"/>
      <feDropShadow dx="0" dy="1" stdDeviation="2" flood-color="#0f172a" flood-opacity="0.02"/>
    </filter>
    <filter id="hover-shadow" x="-4%" y="-5%" width="108%" height="115%" filterUnits="userSpaceOnUse">
      <feDropShadow dx="0" dy="6" stdDeviation="8" flood-color="#0284c7" flood-opacity="0.08"/>
    </filter>
  </defs>
  <!-- Canvas Background -->
  <rect width="1440" height="980" fill="#F8FAFC"/>
  <pattern id="dot-grid" x="0" y="0" width="24" height="24" patternUnits="userSpaceOnUse">
    <circle cx="2" cy="2" r="1" fill="#E2E8F0"/>
  </pattern>
  <rect width="1440" height="980" fill="url(#dot-grid)"/>
  <!-- Header -->
  <g transform="translate(40, 24)">
    <rect width="40" height="40" rx="10" fill="#2563EB"/>
    <path d="M 20 10 L 20 30 M 10 20 L 30 20" stroke="#FFFFFF" stroke-width="4" stroke-linecap="round"/>
    <text x="52" y="24" font-size="20" font-weight="800" fill="#0F172A" letter-spacing="-0.5px">HealthCare System Architecture</text>
    <text x="52" y="38" font-size="12" font-weight="500" fill="#64748B">Enterprise Medical Platform • Production Cloud Topology &amp; Local Dev Ecosystem (2026)</text>
    <g transform="translate(1040, 4)">
      <rect x="0" y="0" width="135" height="28" rx="6" fill="#EFF6FF" stroke="#BFDBFE"/>
      <circle cx="12" cy="14" r="4" fill="#2563EB"/>
      <text x="24" y="18" font-size="11" font-weight="600" fill="#1D4ED8">Next.js 16 + React 19</text>
      <rect x="145" y="0" width="140" height="28" rx="6" fill="#F0FDF4" stroke="#BBF7D0"/>
      <circle cx="157" cy="14" r="4" fill="#16A34A"/>
      <text x="169" y="18" font-size="11" font-weight="600" fill="#15803D">Spring Boot 3 + AI RAG</text>
    </g>
  </g>
  <!-- LAYER 1: CLIENT & USER CHANNELS -->
  <g id="layer-client">
    <rect x="40" y="80" width="1360" height="120" rx="14" fill="#FFFFFF" stroke="#E2E8F0" stroke-width="1.5" filter="url(#card-shadow)"/>
    <!-- Layer Label Pill -->
    <rect x="55" y="70" width="220" height="22" rx="6" fill="#EFF6FF" stroke="#93C5FD"/>
    <text x="65" y="85" font-size="11" font-weight="700" fill="#1D4ED8" letter-spacing="0.5px">LAYER 1 • CLIENT &amp; APPS</text>
    <g transform="translate(60, 100)">
      <rect width="250" height="84" rx="10" fill="#F8FAFC" stroke="#CBD5E1" stroke-width="1.2"/>
      <circle cx="28" cy="28" r="14" fill="#DBEAFE"/>
      <path d="M 28 20 A 4 4 0 1 0 28 28 A 4 4 0 1 0 28 20 M 20 37 A 8 6 0 0 1 36 37" fill="none" stroke="#2563EB" stroke-width="2"/>
      <text x="52" y="26" font-size="13" font-weight="700" fill="#0F172A">Hospital Users &amp; Roles</text>
      <text x="52" y="42" font-size="11" fill="#64748B">Patients • Doctors • Admins</text>
      <rect x="52" y="52" width="180" height="20" rx="4" fill="#E2E8F0"/>
      <text x="58" y="66" class="mono" font-size="10" font-weight="600" fill="#334155">RBAC: PATIENT | DOCTOR | ADMIN</text>
    </g>
    <g transform="translate(340, 100)">
      <rect width="320" height="84" rx="10" fill="#F8FAFC" stroke="#93C5FD" stroke-width="1.5"/>
      <rect x="14" y="14" width="28" height="28" rx="6" fill="#EFF6FF"/>
      <path d="M 20 34 L 28 18 L 36 34 M 23 29 L 33 29" stroke="#2563EB" stroke-width="2" stroke-linecap="round"/>
      <text x="52" y="26" font-size="13" font-weight="700" fill="#0F172A">Next.js 16 Web Frontend</text>
      <text x="52" y="42" font-size="11" fill="#64748B">App Router, Turbopack, TailwindCSS</text>
      <g transform="translate(52, 54)">
        <rect width="115" height="18" rx="4" fill="#DBEAFE"/>
        <text x="6" y="13" font-size="10" font-weight="600" fill="#1D4ED8">React 19 Server Comp.</text>
        <rect x="122" y="0" width="125" height="18" rx="4" fill="#E0F2FE"/>
        <text x="128" y="13" font-size="10" font-weight="600" fill="#0369A1">Floating AI Assistant UI</text>
      </g>
    </g>
    <g transform="translate(690, 100)">
      <rect width="360" height="84" rx="10" fill="#F8FAFC" stroke="#CBD5E1" stroke-width="1.2"/>
      <rect x="14" y="14" width="28" height="28" rx="6" fill="#F3E8FF"/>
      <path d="M 20 22 H 36 M 20 28 H 36 M 20 34 H 28" stroke="#9333EA" stroke-width="2" stroke-linecap="round"/>
      <text x="52" y="26" font-size="13" font-weight="700" fill="#0F172A">Clinical &amp; Management Portals</text>
      <text x="52" y="42" font-size="11" fill="#64748B">Dedicated Views for Care Delivery &amp; Governance</text>
      <g transform="translate(52, 54)">
        <rect width="90" height="18" rx="4" fill="#F1F5F9"/>
        <text x="8" y="13" class="mono" font-size="9.5" font-weight="600" fill="#475569">/patient (Hub)</text>
        <rect x="96" y="0" width="95" height="18" rx="4" fill="#F1F5F9"/>
        <text x="102" y="13" class="mono" font-size="9.5" font-weight="600" fill="#475569">/doctor (Studio)</text>
        <rect x="197" y="0" width="95" height="18" rx="4" fill="#F1F5F9"/>
        <text x="203" y="13" class="mono" font-size="9.5" font-weight="600" fill="#475569">/admin (CMS/QA)</text>
      </g>
    </g>
    <g transform="translate(1080, 100)">
      <rect width="300" height="84" rx="10" fill="#F8FAFC" stroke="#CBD5E1" stroke-width="1.2"/>
      <rect x="14" y="14" width="28" height="28" rx="6" fill="#DCFCE7"/>
      <rect x="23" y="20" width="10" height="16" rx="2" stroke="#16A34A" stroke-width="1.8" fill="none"/>
      <circle cx="28" cy="33" r="1" fill="#16A34A"/>
      <text x="52" y="26" font-size="13" font-weight="700" fill="#0F172A">Mobile Experience &amp; PWA</text>
      <text x="52" y="42" font-size="11" fill="#64748B">Zero layout shift, 390px-1440px</text>
      <g transform="translate(52, 54)">
        <rect width="110" height="18" rx="4" fill="#DCFCE7"/>
        <text x="6" y="13" font-size="10" font-weight="600" fill="#15803D">Touch-Optimized</text>
        <rect x="116" y="0" width="115" height="18" rx="4" fill="#F1F5F9"/>
        <text x="122" y="13" font-size="10" font-weight="600" fill="#475569">Fast Offline Shell</text>
      </g>
    </g>
  </g>
  <!-- LAYER 2: GATEWAY & VERCEL EDGE -->
  <g id="layer-gateway">
    <rect x="40" y="225" width="1360" height="105" rx="14" fill="#FFFFFF" stroke="#E2E8F0" stroke-width="1.5" filter="url(#card-shadow)"/>
    <!-- Layer Label Pill -->
    <rect x="55" y="215" width="280" height="22" rx="6" fill="#ECFDF5" stroke="#A7F3D0"/>
    <text x="65" y="230" font-size="11" font-weight="700" fill="#047857" letter-spacing="0.5px">LAYER 2 • GATEWAY &amp; VERCEL EDGE NETWORK</text>
    <g transform="translate(60, 245)">
      <rect width="360" height="70" rx="8" fill="#F0FDF4" stroke="#86EFAC" stroke-width="1.2"/>
      <circle cx="28" cy="24" r="12" fill="#DCFCE7"/>
      <path d="M 28 14 A 10 10 0 1 0 28 34 M 18 24 H 38 M 28 14 C 24 18 24 30 28 34 C 32 30 32 18 28 14" stroke="#16A34A" stroke-width="1.5" fill="none"/>
      <text x="50" y="24" font-size="13" font-weight="700" fill="#0F172A">Custom Domain &amp; Anycast Edge</text>
      <text x="50" y="40" class="mono" font-size="11" font-weight="600" fill="#15803D">www.healthcare.id.vn • healthcare-two-olive</text>
      <text x="50" y="56" font-size="10.5" fill="#475569">Global SSL/TLS 1.3 Termination, Edge Static Caching</text>
    </g>
    <g transform="translate(450, 245)">
      <rect width="420" height="70" rx="8" fill="#F0FDFA" stroke="#99F6E4" stroke-width="1.2"/>
      <circle cx="28" cy="24" r="12" fill="#CCFBF1"/>
      <path d="M 28 14 L 35 18 V 26 C 35 31 28 34 28 34 C 28 34 21 31 21 26 V 18 Z" stroke="#0D9488" stroke-width="1.5" fill="none"/>
      <text x="50" y="24" font-size="13" font-weight="700" fill="#0F172A">Edge Origin Guard &amp; Rate Defense</text>
      <text x="50" y="40" font-size="11" font-weight="600" fill="#0F766E">BFF Origin Guard: 403 Forbidden on untrusted origins</text>
      <text x="50" y="56" font-size="10.5" fill="#475569">DDoS mitigation, Path rewrite, Synthetic beta failover</text>
    </g>
    <g transform="translate(900, 245)">
      <rect width="480" height="70" rx="8" fill="#F8FAFC" stroke="#CBD5E1" stroke-width="1.2"/>
      <circle cx="28" cy="24" r="12" fill="#E2E8F0"/>
      <path d="M 22 28 L 28 20 L 34 28 M 28 22 V 32" stroke="#334155" stroke-width="1.5" stroke-linecap="round"/>
      <text x="50" y="24" font-size="13" font-weight="700" fill="#0F172A">Next.js Route Handlers / BFF Proxy</text>
      <text x="50" y="40" class="mono" font-size="11" font-weight="600" fill="#2563EB">/api/v1/*  &amp;  /api/ai/chat (SSE Stream)</text>
      <text x="50" y="56" font-size="10.5" fill="#475569">Server-side Bearer token injection, masks internal ports</text>
    </g>
  </g>
  <!-- LAYER 3: APPLICATION SERVICES -->
  <g id="layer-services">
    <rect x="40" y="360" width="1360" height="175" rx="14" fill="#FFFFFF" stroke="#E2E8F0" stroke-width="1.5" filter="url(#card-shadow)"/>
    <!-- Layer Label Pill (ends at x=365 to avoid any collision with BFF arrow at x=400) -->
    <rect x="55" y="350" width="310" height="22" rx="6" fill="#EEF2FF" stroke="#C7D2FE"/>
    <text x="65" y="365" font-size="11" font-weight="700" fill="#4338CA" letter-spacing="0.5px">LAYER 3 • APPLICATION SERVICES (RENDER CLOUD)</text>
    <g transform="translate(60, 380)">
      <rect width="630" height="140" rx="10" fill="#F8FAFC" stroke="#818CF8" stroke-width="1.5"/>
      <!-- Sub-header -->
      <rect x="12" y="10" width="28" height="28" rx="6" fill="#EEF2FF"/>
      <circle cx="26" cy="24" r="7" stroke="#4F46E5" stroke-width="2" fill="none"/>
      <path d="M 26 21 V 24 L 28 26" stroke="#4F46E5" stroke-width="1.8" stroke-linecap="round"/>
      <text x="48" y="24" font-size="14" font-weight="800" fill="#1E1B4B">Core Backend Services (Spring Boot 3.3.x, Java 21)</text>
      <text x="48" y="38" font-size="11" fill="#6366F1">Modular Monolith Architecture • Multi-tenant / Role Security</text>
      <g transform="translate(14, 50)">
        <rect x="0" y="0" width="194" height="74" rx="6" fill="#FFFFFF" stroke="#E2E8F0"/>
        <text x="10" y="18" font-size="11" font-weight="700" fill="#0F172A">Spring Security &amp; Auth</text>
        <text x="10" y="32" font-size="10" fill="#64748B">• JWT Stateless Token Auth</text>
        <text x="10" y="46" font-size="10" fill="#64748B">• Bounded OTP Confirmation</text>
        <text x="10" y="60" font-size="10" fill="#64748B">• RBAC Guards &amp; BCrypt</text>
        <rect x="204" y="0" width="194" height="74" rx="6" fill="#FFFFFF" stroke="#E2E8F0"/>
        <text x="214" y="18" font-size="11" font-weight="700" fill="#0F172A">Booking &amp; Clinical</text>
        <text x="214" y="32" font-size="10" fill="#64748B">• Branch-aware Doctor Slots</text>
        <text x="214" y="46" font-size="10" fill="#64748B">• Appointment Lock Flow</text>
        <text x="214" y="60" font-size="10" fill="#64748B">• Medical Records &amp; Diag</text>
        <rect x="408" y="0" width="194" height="74" rx="6" fill="#FFFFFF" stroke="#E2E8F0"/>
        <text x="418" y="18" font-size="11" font-weight="700" fill="#0F172A">Catalog, CMS &amp; Pay</text>
        <text x="418" y="32" font-size="10" fill="#64748B">• Real-time Event Stream</text>
        <text x="418" y="46" font-size="10" fill="#64748B">• Bank Transfer Reconcile</text>
        <text x="418" y="60" font-size="10" fill="#64748B">• SSE/WS Notifications</text>
      </g>
    </g>
    <g transform="translate(750, 380)">
      <rect width="630" height="140" rx="10" fill="#F8FAFC" stroke="#C084FC" stroke-width="1.5"/>
      <!-- Sub-header -->
      <rect x="12" y="10" width="28" height="28" rx="6" fill="#FAF5FF"/>
      <path d="M 26 16 L 28 22 L 34 24 L 28 26 L 26 32 L 24 26 L 18 24 L 24 22 Z" fill="#9333EA"/>
      <text x="48" y="24" font-size="14" font-weight="800" fill="#3B0764">AI &amp; RAG Intelligence Service (FastAPI, Python 3.12)</text>
      <text x="48" y="38" font-size="11" fill="#9333EA">Autonomous Medical Assistant • Semantic Search &amp; Safety Filters</text>
      <g transform="translate(14, 50)">
        <rect x="0" y="0" width="194" height="74" rx="6" fill="#FFFFFF" stroke="#E2E8F0"/>
        <text x="10" y="18" font-size="11" font-weight="700" fill="#0F172A">RAG &amp; Embeddings</text>
        <text x="10" y="32" font-size="10" fill="#64748B">• Vector Similarity Search</text>
        <text x="10" y="46" font-size="10" fill="#64748B">• Medical Knowledge Base</text>
        <text x="10" y="60" font-size="10" fill="#64748B">• Curated Protocols</text>
        <rect x="204" y="0" width="194" height="74" rx="6" fill="#FFFFFF" stroke="#E2E8F0"/>
        <text x="214" y="18" font-size="11" font-weight="700" fill="#0F172A">Safety Guardrails</text>
        <text x="214" y="32" font-size="10" fill="#64748B">• Prompt Injection Shield</text>
        <text x="214" y="46" font-size="10" fill="#64748B">• Privacy &amp; Record Refusal</text>
        <text x="214" y="60" font-size="10" fill="#64748B">• Hallucination Check</text>
        <rect x="408" y="0" width="194" height="74" rx="6" fill="#FFFFFF" stroke="#E2E8F0"/>
        <text x="418" y="18" font-size="11" font-weight="700" fill="#0F172A">Fallback Engine</text>
        <text x="418" y="32" font-size="10" fill="#64748B">• Local Deterministic Rule</text>
        <text x="418" y="46" font-size="10" fill="#64748B">• Cloud LLM Provider</text>
        <text x="418" y="60" font-size="10" fill="#64748B">• Fail-closed Breaker</text>
      </g>
    </g>
  </g>
  <!-- LAYER 4: DATA PERSISTENCE & STORAGE -->
  <g id="layer-data">
    <rect x="40" y="560" width="1360" height="170" rx="14" fill="#FFFFFF" stroke="#E2E8F0" stroke-width="1.5" filter="url(#card-shadow)"/>
    <!-- Layer Label Pill -->
    <rect x="55" y="550" width="310" height="22" rx="6" fill="#FFFBEB" stroke="#FDE68A"/>
    <text x="65" y="565" font-size="11" font-weight="700" fill="#B45309" letter-spacing="0.5px">LAYER 4 • DATA PERSISTENCE &amp; STORAGE STACK</text>
    <g transform="translate(60, 580)">
      <rect width="300" height="135" rx="10" fill="#F8FAFC" stroke="#FBBF24" stroke-width="1.5"/>
      <!-- Cylinder Icon -->
      <g transform="translate(14, 12)">
        <ellipse cx="14" cy="6" rx="12" ry="5" fill="#FEF3C7" stroke="#D97706" stroke-width="1.5"/>
        <path d="M 2 6 V 22 A 12 5 0 0 0 26 22 V 6" fill="#FEF3C7" stroke="#D97706" stroke-width="1.5"/>
      </g>
      <text x="50" y="24" font-size="13" font-weight="800" fill="#0F172A">PostgreSQL 16 (Relational DB)</text>
      <text x="50" y="38" font-size="10.5" fill="#D97706">Transactional System of Record</text>
      <g transform="translate(14, 48)">
        <rect width="270" height="22" rx="4" fill="#FFFFFF" stroke="#E2E8F0"/>
        <text x="8" y="15" class="mono" font-size="10" fill="#334155">• Flyway Migrations (V1..V8 Schema)</text>
        <rect y="28" width="270" height="22" rx="4" fill="#FFFFFF" stroke="#E2E8F0"/>
        <text x="8" y="43" font-size="10" fill="#334155">• Doctors, Specialties, Bookings, Slotted Times</text>
        <rect y="56" width="270" height="22" rx="4" fill="#FFFFFF" stroke="#E2E8F0"/>
        <text x="8" y="71" font-size="10" fill="#334155">• Row-Level Isolation &amp; Audit Logs</text>
      </g>
    </g>
    <g transform="translate(380, 580)">
      <rect width="290" height="135" rx="10" fill="#F8FAFC" stroke="#CBD5E1" stroke-width="1.2"/>
      <g transform="translate(14, 12)">
        <rect width="24" height="24" rx="5" fill="#FEE2E2"/>
        <path d="M 6 12 L 18 6 L 18 18 Z" fill="#DC2626"/>
      </g>
      <text x="46" y="24" font-size="13" font-weight="800" fill="#0F172A">Redis / Render KV Cache</text>
      <text x="46" y="38" font-size="10.5" fill="#DC2626">High-speed In-Memory Store</text>
      <g transform="translate(14, 48)">
        <rect width="260" height="22" rx="4" fill="#FFFFFF" stroke="#E2E8F0"/>
        <text x="8" y="15" font-size="10" fill="#334155">• Sliding Window Rate-Limiting</text>
        <rect y="28" width="260" height="22" rx="4" fill="#FFFFFF" stroke="#E2E8F0"/>
        <text x="8" y="43" font-size="10" fill="#334155">• Ephemeral OTP &amp; Session Tokens</text>
        <rect y="56" width="260" height="22" rx="4" fill="#FFFFFF" stroke="#E2E8F0"/>
        <text x="8" y="71" font-size="10" fill="#334155">• Fast Realtime Catalog Cache</text>
      </g>
    </g>
    <g transform="translate(690, 580)">
      <rect width="330" height="135" rx="10" fill="#F8FAFC" stroke="#CBD5E1" stroke-width="1.2"/>
      <g transform="translate(14, 12)">
        <rect width="24" height="24" rx="5" fill="#F0FDF4"/>
        <path d="M 6 18 A 6 6 0 0 1 12 10 A 8 8 0 0 1 22 14 A 5 5 0 0 1 20 20 Z" stroke="#16A34A" stroke-width="1.5" fill="none"/>
      </g>
      <text x="46" y="24" font-size="13" font-weight="800" fill="#0F172A">MinIO / S3 Object Storage</text>
      <text x="46" y="38" font-size="10.5" fill="#16A34A">Encrypted Document Store</text>
      <g transform="translate(14, 48)">
        <rect width="300" height="22" rx="4" fill="#FFFFFF" stroke="#E2E8F0"/>
        <text x="8" y="15" font-size="10" fill="#334155">• Diagnostic Records &amp; Scan Attachments</text>
        <rect y="28" width="300" height="22" rx="4" fill="#FFFFFF" stroke="#E2E8F0"/>
        <text x="8" y="43" font-size="10" fill="#334155">• Doctor Profiles &amp; Avatar Media Assets</text>
        <rect y="56" width="300" height="22" rx="4" fill="#FFFFFF" stroke="#E2E8F0"/>
        <text x="8" y="71" font-size="10" fill="#334155">• ClamAV Antivirus Quarantine Pipe</text>
      </g>
    </g>
    <g transform="translate(1040, 580)">
      <rect width="340" height="135" rx="10" fill="#F8FAFC" stroke="#6EE7B7" stroke-width="1.5"/>
      <g transform="translate(14, 12)">
        <rect width="24" height="24" rx="5" fill="#ECFDF5"/>
        <path d="M 12 6 L 16 14 H 8 L 12 6 M 12 14 L 16 22 H 8 L 12 14" stroke="#059669" stroke-width="1.5" fill="none"/>
      </g>
      <text x="46" y="24" font-size="13" font-weight="800" fill="#0F172A">Supabase (Audited Boundary)</text>
      <text x="46" y="38" font-size="10.5" fill="#059669">Healthcare Schema + RLS Projections</text>
      <g transform="translate(14, 48)">
        <rect width="310" height="22" rx="4" fill="#FFFFFF" stroke="#E2E8F0"/>
        <text x="8" y="15" font-size="10" fill="#334155">• 15 Core Tables with Enforced RLS</text>
        <rect y="28" width="310" height="22" rx="4" fill="#FFFFFF" stroke="#E2E8F0"/>
        <text x="8" y="43" font-size="10" fill="#334155">• De-identified Projections &amp; Read Replicas</text>
        <rect y="56" width="310" height="22" rx="4" fill="#FFFFFF" stroke="#E2E8F0"/>
        <text x="8" y="71" font-size="10" fill="#334155">• Service-role Tombstone &amp; Filter Gates</text>
      </g>
    </g>
  </g>
  <!-- LAYER 5: OPERATIONS & CI/CD -->
  <g id="layer-ops">
    <rect x="40" y="750" width="1360" height="95" rx="14" fill="#FFFFFF" stroke="#E2E8F0" stroke-width="1.5" filter="url(#card-shadow)"/>
    <!-- Layer Label Pill -->
    <rect x="55" y="740" width="280" height="22" rx="6" fill="#F1F5F9" stroke="#CBD5E1"/>
    <text x="65" y="755" font-size="11" font-weight="700" fill="#475569" letter-spacing="0.5px">LAYER 5 • DEVOPS, SECURITY &amp; PIPELINES</text>
    <g transform="translate(60, 770)">
      <rect width="410" height="60" rx="8" fill="#F8FAFC" stroke="#CBD5E1" stroke-width="1.2"/>
      <text x="14" y="24" font-size="12.5" font-weight="700" fill="#0F172A">GitHub Actions Enterprise CI/CD</text>
      <text x="14" y="42" font-size="10.5" fill="#64748B">• Lint, Typecheck, Unit/Integration Test Matrix</text>
      <text x="14" y="54" font-size="10.5" fill="#64748B">• Multi-arch Docker Build + SBOM &amp; Provenance</text>
    </g>
    <g transform="translate(490, 770)">
      <rect width="410" height="60" rx="8" fill="#F8FAFC" stroke="#CBD5E1" stroke-width="1.2"/>
      <text x="14" y="24" font-size="12.5" font-weight="700" fill="#0F172A">ClamAV &amp; Security Scanners</text>
      <text x="14" y="42" font-size="10.5" fill="#64748B">• Real-time attachment virus scanning daemon</text>
      <text x="14" y="54" font-size="10.5" fill="#64748B">• OWASP dependency audit, secret leakage gates</text>
    </g>
    <g transform="translate(920, 770)">
      <rect width="460" height="60" rx="8" fill="#F8FAFC" stroke="#CBD5E1" stroke-width="1.2"/>
      <text x="14" y="24" font-size="12.5" font-weight="700" fill="#0F172A">Mailpit &amp; Compose Diagnostic Suite</text>
      <text x="14" y="42" font-size="10.5" fill="#64748B">• SMTP dev sink for appointment confirmation &amp; OTP</text>
      <text x="14" y="54" font-size="10.5" fill="#64748B">• 9-service Docker Compose topology with healthchecks</text>
    </g>
  </g>
  <!-- CONNECTORS & FLOWS -->
  <path d="M 310,142 L 340,142" stroke="#2563eb" stroke-width="2" marker-end="url(#arr-blue)"/>
  <path d="M 660,142 L 690,142" stroke="#2563eb" stroke-width="2" marker-end="url(#arr-blue)"/>
  <path d="M 500,184 L 500,225" stroke="#2563eb" stroke-width="2" marker-end="url(#arr-blue)"/>
  <rect x="440" y="196" width="120" height="18" rx="4" fill="#F8FAFC" stroke="#CBD5E1" opacity="0.95"/>
  <text x="500" y="209" font-size="9.5" font-weight="600" fill="#1E40AF" text-anchor="middle">HTTPS / TLS 1.3</text>
  <path d="M 870,280 L 900,280" stroke="#0d9488" stroke-width="2" marker-end="url(#arr-teal)"/>
  <path d="M 1000,315 L 1000,340 L 400,340 L 400,380" fill="none" stroke="#2563eb" stroke-width="2" marker-end="url(#arr-blue)"/>
  <rect x="630" y="331" width="170" height="18" rx="4" fill="#F8FAFC" stroke="#93C5FD" opacity="0.95"/>
  <text x="715" y="344" font-size="9.5" font-weight="600" fill="#1D4ED8" text-anchor="middle">BFF Token Auth (REST APIs)</text>
  <path d="M 1220,315 L 1220,380" fill="none" stroke="#9333ea" stroke-width="2" marker-end="url(#arr-purple)"/>
  <rect x="1140" y="335" width="160" height="18" rx="4" fill="#F8FAFC" stroke="#D8B4FE" opacity="0.95"/>
  <text x="1220" y="348" font-size="9.5" font-weight="600" fill="#7E22CE" text-anchor="middle">AI Chat SSE Stream / RAG</text>
  <path d="M 690,445 L 750,445" stroke="#4f46e5" stroke-width="2" stroke-dasharray="4 2" marker-end="url(#arr-indigo)"/>
  <rect x="692" y="437" width="56" height="16" rx="3" fill="#EEF2FF" stroke="#C7D2FE"/>
  <text x="720" y="449" font-size="8" font-weight="700" fill="#4338CA" text-anchor="middle">Triage RAG</text>
  <path d="M 210,520 L 210,580" fill="none" stroke="#d97706" stroke-width="2" marker-end="url(#arr-amber)"/>
  <rect x="150" y="538" width="120" height="18" rx="4" fill="#F8FAFC" stroke="#FDE68A" opacity="0.95"/>
  <text x="210" y="551" font-size="9.5" font-weight="600" fill="#B45309" text-anchor="middle">JDBC / Flyway DDL</text>
  <path d="M 450,520 L 450,580" fill="none" stroke="#dc2626" stroke-width="2" marker-end="url(#arr-red)"/>
  <rect x="390" y="538" width="120" height="18" rx="4" fill="#F8FAFC" stroke="#FECACA" opacity="0.95"/>
  <text x="450" y="551" font-size="9.5" font-weight="600" fill="#991B1B" text-anchor="middle">Jedis / Lettuce KV</text>
  <path d="M 600,520 L 600,540 L 760,540 L 760,580" fill="none" stroke="#16a34a" stroke-width="2" marker-end="url(#arr-green)"/>
  <rect x="680" y="532" width="125" height="18" rx="4" fill="#F8FAFC" stroke="#BBF7D0" opacity="0.95"/>
  <text x="742" y="545" font-size="9.5" font-weight="600" fill="#166534" text-anchor="middle">S3 Presigned URLs</text>
  <path d="M 340,715 L 340,724 L 1060,724 L 1060,715" fill="none" stroke="#059669" stroke-width="1.8" stroke-dasharray="5 3" marker-end="url(#arr-teal)"/>
  <rect x="610" y="715" width="180" height="18" rx="4" fill="#ECFDF5" stroke="#A7F3D0" opacity="0.95"/>
  <text x="700" y="728" font-size="9" font-weight="600" fill="#047857" text-anchor="middle">Audited RLS Projection Sync</text>
  <!-- LEGEND & SPECIFICATIONS -->
  <g transform="translate(40, 865)">
    <rect width="1360" height="90" rx="10" fill="#0F172A"/>
    <text x="24" y="28" font-size="12" font-weight="800" fill="#F8FAFC" letter-spacing="0.5px">SYSTEM FLOW LEGEND &amp; VERIFICATION SPECIFICATION</text>
    <g transform="translate(24, 45)">
      <line x1="0" y1="10" x2="30" y2="10" stroke="#2563eb" stroke-width="2.5" marker-end="url(#arr-blue)"/>
      <text x="38" y="14" font-size="11" font-weight="600" fill="#94A3B8">Client &amp; BFF Ingestion</text>
    </g>
    <g transform="translate(230, 45)">
      <line x1="0" y1="10" x2="30" y2="10" stroke="#0d9488" stroke-width="2.5" marker-end="url(#arr-teal)"/>
      <text x="38" y="14" font-size="11" font-weight="600" fill="#94A3B8">Origin Guard &amp; TLS Edge</text>
    </g>
    <g transform="translate(440, 45)">
      <line x1="0" y1="10" x2="30" y2="10" stroke="#9333ea" stroke-width="2.5" marker-end="url(#arr-purple)"/>
      <text x="38" y="14" font-size="11" font-weight="600" fill="#94A3B8">AI RAG &amp; SSE Stream</text>
    </g>
    <g transform="translate(640, 45)">
      <line x1="0" y1="10" x2="30" y2="10" stroke="#d97706" stroke-width="2.5" marker-end="url(#arr-amber)"/>
      <text x="38" y="14" font-size="11" font-weight="600" fill="#94A3B8">Flyway / Relational Data</text>
    </g>
    <g transform="translate(850, 45)">
      <line x1="0" y1="10" x2="30" y2="10" stroke="#059669" stroke-width="2" stroke-dasharray="4 2" marker-end="url(#arr-teal)"/>
      <text x="38" y="14" font-size="11" font-weight="600" fill="#94A3B8">RLS Sync / Internal Events</text>
    </g>
    <g transform="translate(1080, 20)">
      <rect width="250" height="50" rx="6" fill="#1E293B" stroke="#334155"/>
      <circle cx="16" cy="18" r="4" fill="#10B981"/>
      <text x="28" y="22" font-size="11" font-weight="700" fill="#F8FAFC">Active Beta: www.healthcare.id.vn</text>
      <text x="28" y="38" class="mono" font-size="10" fill="#94A3B8">Render Free Tier + Vercel Edge</text>
    </g>
  </g>
</svg>